<svg width="74" height="74" viewBox="0 0 74 74" fill="none" xmlns="http://www.w3.org/2000/svg">
<path fill-rule="evenodd" clip-rule="evenodd" d="M37 0C57.4341 0 74 16.5659 74 37C74 57.4341 57.4341 74 37 74C16.5659 74 0 57.4341 0 37C0 16.5659 16.5659 0 37 0ZM44.4235 25.9235C45.0363 25.2892 45.3753 24.4395 45.3676 23.5576C45.36 22.6756 45.0062 21.832 44.3826 21.2083C43.7589 20.5847 42.9153 20.2309 42.0333 20.2233C41.1514 20.2156 40.3018 20.5546 39.6674 21.1674L26.2128 34.6219C25.5822 35.2527 25.228 36.1081 25.228 37C25.228 37.8919 25.5822 38.7473 26.2128 39.3781L39.6674 52.8326C40.3018 53.4453 41.1514 53.7844 42.0333 53.7767C42.9153 53.7691 43.7589 53.4153 44.3826 52.7917C45.0062 52.168 45.36 51.3244 45.3676 50.4424C45.3753 49.5605 45.0363 48.7108 44.4235 48.0765L33.3471 37L44.4235 25.9235Z" fill="white"/>
</svg>
