<svg width="36" height="34" viewBox="0 0 36 34" fill="none" xmlns="http://www.w3.org/2000/svg">
<path d="M7.78979 9.22266H29.8069C30.253 9.22267 30.6942 9.31377 31.102 9.49006C31.5098 9.66636 31.8751 9.92395 32.1744 10.2462C32.4738 10.5685 32.7005 10.9483 32.84 11.3612C32.9794 11.7741 33.0285 12.2108 32.9842 12.6433L32.0262 21.9767C31.9474 22.7443 31.5787 23.4561 30.9915 23.9738C30.4044 24.4915 29.6408 24.7782 28.849 24.7782H13.6014C12.8629 24.7785 12.1472 24.5294 11.576 24.0733C11.0049 23.6173 10.6136 22.9824 10.4689 22.2769L7.78979 9.22266Z" stroke="white" stroke-width="4.16667" stroke-linejoin="round"/>
<path d="M25.3524 31H28.5457M7.78981 9.22222L6.49656 4.17756C6.41007 3.84117 6.21069 3.54259 5.9301 3.32924C5.6495 3.11589 5.30378 3.00001 4.94786 3H3L7.78981 9.22222ZM12.5796 31H15.7728H12.5796Z" stroke="white" stroke-width="4.16667" stroke-linecap="round" stroke-linejoin="round"/>
</svg>
