<svg width="64" height="48" viewBox="0 0 64 48" fill="none" xmlns="http://www.w3.org/2000/svg">
<path fill-rule="evenodd" clip-rule="evenodd" d="M25.9324 20.3931C24.7094 16.2914 20.6683 13.3095 15.903 13.3997C10.3201 13.5128 5.89602 17.7665 6.01958 22.9167C6.06872 25.0763 6.91146 27.0589 8.28542 28.607L14.109 35.2177L20.2574 33.132C20.9229 32.8995 21.6696 33.2183 21.9175 33.8408C22.1792 34.4585 21.8293 35.1569 21.1498 35.3731L15.8462 37.1812L23.4771 45.8333C24.1055 46.5455 25.2596 46.6555 26.0448 46.0714C26.4838 45.7314 26.722 45.2337 26.7146 44.7346L26.2302 22.802L20.8627 24.6679C20.53 24.7739 20.1842 24.7589 19.88 24.629C19.5757 24.4991 19.325 24.2595 19.1967 23.9566C18.9488 23.3341 19.2928 22.6476 19.9672 22.4189L25.9324 20.3931ZM16.7531 0.816406C12.6356 1.77672 10.2558 4.73883 10.3024 8.13168C8.02384 5.54681 4.06726 4.68433 0.285156 6.35166C1.6382 11.0876 6.42544 13.3133 11.2878 11.7021L12.151 11.4093C16.9594 9.79154 19.0361 5.24259 16.7531 0.816406ZM29.3221 45.8915L29.4151 18.7074C42.2453 15.7572 53.0932 21.5516 56.704 33.2078L31.1418 46.8665C30.7728 47.0714 30.306 47.0675 29.9282 46.8629C29.553 46.6665 29.3284 46.2927 29.3221 45.8915ZM34.1784 37.0801C34.4941 38.2013 35.8106 38.9149 37.091 38.6076C38.4353 38.285 39.2097 37.0682 38.8126 35.9035C38.4968 34.7823 37.1811 34.0686 35.9 34.376C34.6196 34.6833 33.8456 35.8985 34.1784 37.0801ZM34.9126 26.4658C35.2454 27.6474 36.5612 28.3611 37.8423 28.0537C39.1866 27.7311 39.978 26.5747 39.5632 25.3498C39.2474 24.2286 37.9309 23.515 36.6505 23.8223C35.3702 24.1295 34.5799 25.2843 34.9126 26.4658ZM43.7839 31.2741C44.0997 32.3953 45.4162 33.1089 46.6966 32.8016C47.9754 32.4947 48.7668 31.3383 48.4345 30.1581C48.1017 28.9765 46.7859 28.2627 45.5048 28.5702C44.2245 28.8774 43.4511 30.0925 43.7839 31.2741ZM29.4323 12.4004C29.4374 11.2809 30.3472 10.3466 31.5477 10.1659C45.0911 8.15063 58.7878 15.4384 63.6976 27.1395C64.1404 28.1966 63.7198 29.3889 62.658 29.957L58.8223 32.005C54.7375 19.7051 43.1537 13.5289 29.418 16.4315L29.4323 12.4004Z" fill="white"/>
</svg>
