<svg width="39" height="36" viewBox="0 0 39 36" fill="none" xmlns="http://www.w3.org/2000/svg">
<path d="M18.1243 3.40068C18.6576 2.09951 20.6759 2.09951 21.2109 3.40068L24.6609 12.2406C24.7813 12.5286 24.9932 12.776 25.2688 12.9502C25.5443 13.1244 25.8705 13.2173 26.2043 13.2165H34.6826C36.2493 13.2165 36.9326 15.0202 35.7009 15.9036L29.6676 20.9248C29.3973 21.117 29.1998 21.3834 29.1034 21.6859C29.007 21.9883 29.0166 22.3112 29.1309 22.6083L31.3343 31.2463C31.8709 32.6338 30.1343 33.8255 28.8209 32.9714L20.6259 28.1614C20.3453 27.9789 20.0106 27.881 19.6676 27.881C19.3246 27.881 18.9899 27.9789 18.7093 28.1614L10.5143 32.9714C9.20261 33.8255 7.46428 32.6322 8.00094 31.2463L10.2043 22.6083C10.3186 22.3112 10.3282 21.9883 10.2318 21.6859C10.1354 21.3834 9.93787 21.117 9.66761 20.9248L3.63427 15.9036C2.40094 15.0202 3.08761 13.2165 4.65094 13.2165H13.1293C13.4631 13.2175 13.7894 13.1247 14.065 12.9505C14.3406 12.7762 14.5524 12.5287 14.6726 12.2406L18.1226 3.40068H18.1243Z" stroke="#0A2E36" stroke-width="4.16667" stroke-linecap="round" stroke-linejoin="round"/>
</svg>
